<?xml version="1.0" encoding="utf-8"?>
<!-- Generator: Adobe Illustrator 19.0.0, SVG Export Plug-In . SVG Version: 6.00 Build 0)  -->
<svg version="1.1" id="Layer_1" xmlns="http://www.w3.org/2000/svg" xmlns:xlink="http://www.w3.org/1999/xlink" x="0px" y="0px"
	 viewBox="0 0 72.4 53.7" style="enable-background:new 0 0 72.4 53.7;" xml:space="preserve">
<style type="text/css">
	.st0{fill: #000a12;}
</style>
<g>
	<g>
		<path class="st0" d="M0,22.1l3.9-4.7c2.5,2,5.3,3.1,8.3,3.1c1.9,0,2.9-0.7,2.9-1.7v-0.1c0-1.1-0.8-1.6-4.3-2.4
			c-5.4-1.2-9.6-2.8-9.6-8V8.2C1.2,3.4,5,0,11.1,0c4.3,0,7.7,1.2,10.5,3.4l-3.5,5c-2.3-1.6-4.9-2.5-7.1-2.5c-1.7,0-2.5,0.7-2.5,1.6
			v0.1c0,1.2,0.9,1.7,4.4,2.5c5.9,1.3,9.5,3.2,9.5,7.9v0.1c0,5.2-4.1,8.3-10.3,8.3C7.4,26.4,3.1,24.9,0,22.1z"/>
		<path class="st0" d="M23.5,0.4v6.2h7.6v16l7.1-5v-11h7.6V0.4H23.5z M31.2,25.7v0.2h7.1v-4.5L31.2,25.7z"/>
		<path class="st0" d="M61,0.4H49v9.6l13.6-9.6C62.1,0.5,61.6,0.4,61,0.4z M66.4,17c3.2-1.3,5.2-3.9,5.2-7.8V9.1
			c0-2.5-0.8-4.5-2.3-5.9c-0.1-0.1-0.1-0.1-0.2-0.2l-6.5,3.9c1.2,0.4,1.9,1.3,1.9,2.7v0.1c0,1.9-1.4,3-3.8,3H56v-1.9L49,15v10.9H56
			v-7.7h3.1l5.1,7.7h8.2L66.4,17z"/>
	</g>
	<g>
		<path class="st0" d="M19.5,32.7l-6,3.6c1.8,1,2.8,2.8,2.8,5.2v0.1c0,3.9-2.7,6.2-6.7,6.2H6.8v-7.4l-4.4,2.6l4.4-3.1v-4.5h2.8
			c1.1,0,2.1,0.2,2.9,0.5l5.8-4.1c-2.3-1.5-5.2-2.4-8.8-2.4H0v24.4h9.3c8.8,0,13.9-5.2,13.9-12.3v-0.1
			C23.2,37.9,21.9,34.8,19.5,32.7z"/>
		<path class="st0" d="M44.6,42.4l-3.6,1l-3.1,0.9l3.2-1.2l3.1-1.2c-1.5-1.7-4.2-2.6-7.6-3.4c-3.4-0.8-4.2-1.2-4.2-2.4v-0.1
			c0-0.9,0.8-1.6,2.4-1.6c2.2,0,4.6,0.8,6.8,2.4l3.4-4.8c-2.6-2.1-5.9-3.2-10-3.2c-5.8,0-9.4,3.3-9.4,7.8v0.1c0,5,4,6.5,9.2,7.7
			c3.3,0.8,4.1,1.3,4.1,2.3v0.1c0,1-1,1.7-2.8,1.7c-2.8,0-5.5-1-7.9-2.9l-3.8,4.5c3,2.7,7.1,4,11.4,4c5.9,0,9.9-3,9.9-7.9v-0.1
			C45.7,44.6,45.3,43.4,44.6,42.4z"/>
		<path class="st0" d="M62.9,39.8l3.3-3.7l-2.6,0.8l-5.1,1.5l-2.6,0.8l-0.1,0.1v-0.1l-5.6,1.6L49,41.1v12.6h6.8v-6.3l2.5-2.8
			l6.1,9.1h8.1L62.9,39.8z M64.4,34.3l5.1-1.9l2.7-3.1h-8l-6.3,7.4l1.3-0.5L64.4,34.3z M55.7,37.6v-8.2H49v10.8l0.6-0.2L55.7,37.6z"
			/>
	</g>
</g>
</svg>
