<?xml version="1.0" encoding="utf-8"?>
<!-- Generator: Adobe Illustrator 19.0.0, SVG Export Plug-In . SVG Version: 6.00 Build 0)  -->
<svg version="1.1" id="Layer_1" xmlns="http://www.w3.org/2000/svg" xmlns:xlink="http://www.w3.org/1999/xlink" x="0px" y="0px"
	 viewBox="-269 361 72.4 72.4" style="enable-background:new -269 361 72.4 72.4;" xml:space="preserve">
<style type="text/css">
	.st0{fill:#FFFFFF;}
</style>
<g>
	<g>
		<path class="st0" d="M-269,392.4l3.9-4.7c2.5,2,5.3,3.1,8.3,3.1c1.9,0,2.9-0.7,2.9-1.7V389c0-1.1-0.8-1.6-4.3-2.4
			c-5.4-1.2-9.6-2.8-9.6-8v-0.1c0-4.8,3.8-8.2,9.9-8.2c4.3,0,7.7,1.2,10.5,3.4l-3.5,5c-2.3-1.6-4.9-2.5-7.1-2.5
			c-1.7,0-2.5,0.7-2.5,1.6v0.1c0,1.2,0.9,1.7,4.4,2.5c5.9,1.3,9.5,3.2,9.5,7.9v0.1c0,5.2-4.1,8.3-10.3,8.3
			C-261.6,396.7-265.9,395.2-269,392.4z"/>
		<path class="st0" d="M-245.5,370.7v6.2h7.6v16l7.1-5v-11h7.6v-6.2H-245.5z M-237.8,396v0.2h7.1v-4.5L-237.8,396z"/>
		<path class="st0" d="M-208,370.7h-12v9.6l13.6-9.6C-206.9,370.8-207.4,370.7-208,370.7z M-202.6,387.3c3.2-1.3,5.2-3.9,5.2-7.8
			v-0.1c0-2.5-0.8-4.5-2.3-5.9c-0.1-0.1-0.1-0.1-0.2-0.2l-6.5,3.9c1.2,0.4,1.9,1.3,1.9,2.7v0.1c0,1.9-1.4,3-3.8,3h-4.7v-1.9l-7,4.2
			v10.9h7v-7.7h3.1l5.1,7.7h8.2L-202.6,387.3z"/>
	</g>
	<g>
		<path class="st0" d="M-249.5,402.6l-6,3.6c1.8,1,2.8,2.8,2.8,5.2v0.1c0,3.9-2.7,6.2-6.7,6.2h-2.8v-7.4l-4.4,2.6l4.4-3.1v-4.5h2.8
			c1.1,0,2.1,0.2,2.9,0.5l5.8-4.1c-2.3-1.5-5.2-2.4-8.8-2.4h-9.5v24.4h9.3c8.8,0,13.9-5.2,13.9-12.3v-0.1
			C-245.8,407.8-247.1,404.7-249.5,402.6z"/>
		<path class="st0" d="M-224.4,412.3l-3.6,1l-3.1,0.9l3.2-1.2l3.1-1.2c-1.5-1.7-4.2-2.6-7.6-3.4c-3.4-0.8-4.2-1.2-4.2-2.4v-0.1
			c0-0.9,0.8-1.6,2.4-1.6c2.2,0,4.6,0.8,6.8,2.4l3.4-4.8c-2.6-2.1-5.9-3.2-10-3.2c-5.8,0-9.4,3.3-9.4,7.8v0.1c0,5,4,6.5,9.2,7.7
			c3.3,0.8,4.1,1.3,4.1,2.3v0.1c0,1-1,1.7-2.8,1.7c-2.8,0-5.5-1-7.9-2.9l-3.8,4.5c3,2.7,7.1,4,11.4,4c5.9,0,9.9-3,9.9-7.9V416
			C-223.3,414.5-223.7,413.3-224.4,412.3z"/>
		<path class="st0" d="M-206.1,409.7l3.3-3.7l-2.6,0.8l-5.1,1.5l-2.6,0.8l-0.1,0.1v-0.1l-5.6,1.6l-1.2,0.3v12.6h6.8v-6.3l2.5-2.8
			l6.1,9.1h8.1L-206.1,409.7z M-204.6,404.2l5.1-1.9l2.7-3.1h-8l-6.3,7.4l1.3-0.5L-204.6,404.2z M-213.3,407.5v-8.2h-6.7v10.8
			l0.6-0.2L-213.3,407.5z"/>
	</g>
</g>
</svg>
